{
    "asset" : {
        "generator" : "Khronos glTF Blender I/O v1.6.16",
        "version" : "2.0"
    },
    "scene" : 0,
    "scenes" : [
        {
            "name" : "Scene",
            "nodes" : [
                0
            ]
        }
    ],
    "nodes" : [
        {
            "mesh" : 0,
            "name" : "Text",
            "rotation" : [
                0.7071068286895752,
                0,
                0,
                0.7071068286895752
            ],
            "scale" : [
                9.335626602172852,
                6.861883640289307,
                5.249309062957764
            ],
            "translation" : [
                -1.9950076341629028,
                -1.6952593326568604,
                0
            ]
        }
    ],
    "meshes" : [
        {
            "name" : "Text",
            "primitives" : [
                {
                    "attributes" : {
                        "POSITION" : 0,
                        "NORMAL" : 1,
                        "TEXCOORD_0" : 2
                    },
                    "indices" : 3
                }
            ]
        }
    ],
    "accessors" : [
        {
            "bufferView" : 0,
            "componentType" : 5126,
            "count" : 38,
            "max" : [
                0.4100000262260437,
                0.22199998795986176,
                0
            ],
            "min" : [
                0.020000001415610313,
                -0.22199998795986176,
                -0.7000000476837158
            ],
            "type" : "VEC3"
        },
        {
            "bufferView" : 1,
            "componentType" : 5126,
            "count" : 38,
            "type" : "VEC3"
        },
        {
            "bufferView" : 2,
            "componentType" : 5126,
            "count" : 38,
            "type" : "VEC2"
        },
        {
            "bufferView" : 3,
            "componentType" : 5123,
            "count" : 96,
            "type" : "SCALAR"
        }
    ],
    "bufferViews" : [
        {
            "buffer" : 0,
            "byteLength" : 456,
            "byteOffset" : 0
        },
        {
            "buffer" : 0,
            "byteLength" : 456,
            "byteOffset" : 456
        },
        {
            "buffer" : 0,
            "byteLength" : 304,
            "byteOffset" : 912
        },
        {
            "buffer" : 0,
            "byteLength" : 192,
            "byteOffset" : 1216
        }
    ],
    "buffers" : [
        {
            "byteLength" : 1408,
            "uri" : "data:application/octet-stream;base64,"
        }
    ]
}